<?xml version="1.0" encoding="UTF-8" standalone="no"?>
<svg
   xmlns:dc="http://purl.org/dc/elements/1.1/"
   xmlns:cc="http://creativecommons.org/ns#"
   xmlns:rdf="http://www.w3.org/1999/02/22-rdf-syntax-ns#"
   xmlns:svg="http://www.w3.org/2000/svg"
   xmlns="http://www.w3.org/2000/svg"
   xmlns:sodipodi="http://sodipodi.sourceforge.net/DTD/sodipodi-0.dtd"
   xmlns:inkscape="http://www.inkscape.org/namespaces/inkscape"
   width="1000"
   height="1000"
   viewBox="0 0 264.58334 264.58333"
   version="1.1"
   id="svg8"
   inkscape:export-filename="C:\Users\N7Win\Documents\VRC3\Assets\TEA Manager\Resources\RadialMenu\icons\Axis.png"
   inkscape:export-xdpi="96"
   inkscape:export-ydpi="96"
   inkscape:version="1.0.2-2 (e86c870879, 2021-01-15)"
   sodipodi:docname="Crosshair.svg">
  <defs
     id="defs2" />
  <sodipodi:namedview
     id="base"
     pagecolor="#ffffff"
     bordercolor="#666666"
     borderopacity="1.0"
     inkscape:pageopacity="0.0"
     inkscape:pageshadow="2"
     inkscape:zoom="1"
     inkscape:cx="322.05673"
     inkscape:cy="534.18381"
     inkscape:document-units="mm"
     inkscape:current-layer="layer1"
     inkscape:document-rotation="0"
     showgrid="true"
     showguides="true"
     objecttolerance="10000"
     inkscape:snap-bbox="true"
     inkscape:bbox-nodes="true"
     units="px"
     inkscape:window-width="2560"
     inkscape:window-height="1377"
     inkscape:window-x="-8"
     inkscape:window-y="-8"
     inkscape:window-maximized="1">
    <inkscape:grid
       type="xygrid"
       id="grid18"
       spacingx="0.26458333"
       spacingy="0.26458333"
       empspacing="10"
       empcolor="#8a3fff"
       empopacity="0.25098039" />
  </sodipodi:namedview>
  <metadata
     id="metadata5">
    <rdf:RDF>
      <cc:Work
         rdf:about="">
        <dc:format>image/svg+xml</dc:format>
        <dc:type
           rdf:resource="http://purl.org/dc/dcmitype/StillImage" />
        <dc:title></dc:title>
      </cc:Work>
    </rdf:RDF>
  </metadata>
  <g
     inkscape:label="Layer 1"
     inkscape:groupmode="layer"
     id="layer1">
    <rect
       style="fill:#00ffff;stroke-width:0.142706"
       id="rect45"
       width="10.583345"
       height="52.916668"
       x="127"
       y="-4.4408921e-16"
       ry="4.4775667" />
    <rect
       style="fill:#00ffff;stroke-width:0.142706"
       id="rect45-8"
       width="10.583345"
       height="52.916668"
       x="127.66145"
       y="211.66666"
       ry="4.4775667" />
    <rect
       style="fill:#00ffff;stroke-width:0.142706"
       id="rect45-8-7"
       width="10.583345"
       height="52.916668"
       x="126.99999"
       y="-264.58334"
       ry="4.4775667"
       transform="rotate(90)" />
    <rect
       style="fill:#00ffff;stroke-width:0.142706"
       id="rect45-8-7-2"
       width="10.583345"
       height="52.916668"
       x="126.99999"
       y="-52.916668"
       ry="4.4775667"
       transform="rotate(90)" />
    <path
       id="path113"
       style="fill:#00ffff;stroke-width:0.999999"
       d="M 500 0 A 500.00002 500.00002 0 0 0 0 500 A 500.00002 500.00002 0 0 0 500 1000 A 500.00002 500.00002 0 0 0 1000 500 A 500.00002 500.00002 0 0 0 500 0 z M 499.52344 20 A 480 480 0 0 1 500 20 A 480 480 0 0 1 980 500 A 480 480 0 0 1 500 980 A 480 480 0 0 1 20 500 A 480 480 0 0 1 499.52344 20 z "
       transform="scale(0.26458333)" />
  </g>
</svg>
