<?xml version="1.0" encoding="UTF-8" standalone="no"?>
<svg
   xmlns:dc="http://purl.org/dc/elements/1.1/"
   xmlns:cc="http://creativecommons.org/ns#"
   xmlns:rdf="http://www.w3.org/1999/02/22-rdf-syntax-ns#"
   xmlns:svg="http://www.w3.org/2000/svg"
   xmlns="http://www.w3.org/2000/svg"
   xmlns:sodipodi="http://sodipodi.sourceforge.net/DTD/sodipodi-0.dtd"
   xmlns:inkscape="http://www.inkscape.org/namespaces/inkscape"
   width="1000"
   height="1000"
   viewBox="0 0 264.58334 264.58333"
   version="1.1"
   id="svg8"
   inkscape:export-filename="C:\Users\N7Win\Documents\VRC3\Assets\TEA Manager\Resources\RadialMenu\icons\Joystick.png"
   inkscape:export-xdpi="96"
   inkscape:export-ydpi="96"
   inkscape:version="1.0.2-2 (e86c870879, 2021-01-15)"
   sodipodi:docname="Joystick.svg">
  <defs
     id="defs2" />
  <sodipodi:namedview
     id="base"
     pagecolor="#ffffff"
     bordercolor="#666666"
     borderopacity="1.0"
     inkscape:pageopacity="0.0"
     inkscape:pageshadow="2"
     inkscape:zoom="0.70710678"
     inkscape:cx="395.32037"
     inkscape:cy="407.12851"
     inkscape:document-units="mm"
     inkscape:current-layer="layer1"
     inkscape:document-rotation="0"
     showgrid="true"
     showguides="true"
     objecttolerance="10000"
     inkscape:snap-bbox="true"
     inkscape:bbox-nodes="true"
     units="px"
     inkscape:window-width="2560"
     inkscape:window-height="1377"
     inkscape:window-x="-8"
     inkscape:window-y="-8"
     inkscape:window-maximized="1">
    <inkscape:grid
       type="xygrid"
       id="grid18"
       spacingx="0.26458333"
       spacingy="0.26458333"
       empspacing="10"
       empcolor="#8a3fff"
       empopacity="0.25098039" />
  </sodipodi:namedview>
  <metadata
     id="metadata5">
    <rdf:RDF>
      <cc:Work
         rdf:about="">
        <dc:format>image/svg+xml</dc:format>
        <dc:type
           rdf:resource="http://purl.org/dc/dcmitype/StillImage" />
        <dc:title></dc:title>
      </cc:Work>
    </rdf:RDF>
  </metadata>
  <g
     inkscape:label="Layer 1"
     inkscape:groupmode="layer"
     id="layer1">
    <circle
       style="fill:#666666;stroke-width:0.259291"
       id="path126-8"
       cx="132.29166"
       cy="132.29167"
       r="129.64583" />
    <path
       id="path126"
       style="fill:#ffffff;stroke-width:0.999999"
       d="M 500 0 A 500.00002 500.00002 0 0 0 0 500 A 500.00002 500.00002 0 0 0 500 1000 A 500.00002 500.00002 0 0 0 1000 500 A 500.00002 500.00002 0 0 0 500 0 z M 499.52344 20 A 480 480 0 0 1 500 20 A 480 480 0 0 1 980 500 A 480 480 0 0 1 500 980 A 480 480 0 0 1 20 500 A 480 480 0 0 1 499.52344 20 z "
       transform="scale(0.26458333)"
       inkscape:export-xdpi="196.60799"
       inkscape:export-ydpi="196.60799" />
    <path
       id="path126-8-9"
       style="fill:#ffffff;stroke-width:0.719996"
       d="M 499.31641 140 A 359.99997 360 0 0 0 140 500 A 359.99997 360 0 0 0 500 860 A 359.99997 360 0 0 0 860 500 A 359.99997 360 0 0 0 500 140 A 359.99997 360 0 0 0 499.31641 140 z M 499.48242 170 A 329.99997 329.99997 0 0 1 500 170 A 329.99997 329.99997 0 0 1 830 500 A 329.99997 329.99997 0 0 1 500 830 A 329.99997 329.99997 0 0 1 170 500 A 329.99997 329.99997 0 0 1 499.48242 170 z "
       transform="scale(0.26458333)" />
    <ellipse
       style="fill:#002255;stroke-width:0.785623"
       id="path232-4"
       cx="132.29167"
       cy="132.29167"
       r="60.854168" />
    <path
       id="path232-6-6"
       style="fill:#ffffff;stroke-width:2.19469"
       d="M 500 330 A 169.99999 169.99999 0 0 0 330 500 A 169.99999 169.99999 0 0 0 500 670 A 169.99999 169.99999 0 0 0 670 500 A 169.99999 169.99999 0 0 0 500 330 z M 499.97461 360 A 139.99999 139.99999 0 0 1 500 360 A 139.99999 139.99999 0 0 1 640 500 A 139.99999 139.99999 0 0 1 500 640 A 139.99999 139.99999 0 0 1 360 500 A 139.99999 139.99999 0 0 1 499.97461 360 z "
       transform="scale(0.26458333)" />
  </g>
</svg>
